<?xml version="1.0" standalone="no"?>
<!DOCTYPE svg PUBLIC "-//W3C//DTD SVG 20010904//EN"
 "http://www.w3.org/TR/2001/REC-SVG-20010904/DTD/svg10.dtd">
<svg version="1.0" xmlns="http://www.w3.org/2000/svg"
 width="512.000000pt" height="512.000000pt" viewBox="0 0 512.000000 512.000000"
 preserveAspectRatio="xMidYMid meet">

<g transform="translate(0.000000,512.000000) scale(0.100000,-0.100000)"
fill="#000000" stroke="none">
<path d="M315 5106 c-106 -26 -207 -99 -261 -191 -57 -97 -55 -34 -52 -1601
l3 -1439 23 -58 c31 -75 118 -170 191 -206 91 -46 138 -51 466 -51 l304 0 41
-87 c60 -129 160 -272 267 -384 87 -91 99 -99 133 -99 45 0 73 27 73 70 0 23
-17 47 -84 117 -197 204 -320 448 -365 721 -23 141 -14 372 20 508 134 536
554 920 1097 1000 408 60 822 -79 1119 -376 187 -188 319 -443 365 -704 28
-162 15 -437 -27 -566 -6 -19 -123 -192 -260 -385 -218 -306 -256 -354 -301
-383 -331 -212 -762 -265 -1133 -139 -39 14 -112 44 -163 67 -103 48 -132 48
-160 -2 -29 -51 -9 -77 107 -134 204 -102 393 -146 637 -146 237 0 446 47 636
142 l75 38 18 -68 c41 -162 180 -270 345 -270 87 0 155 22 220 71 l52 39 27
-32 c184 -225 481 -441 709 -517 213 -71 406 -38 537 94 169 168 190 392 59
608 -72 120 -252 286 -433 402 -79 51 -296 159 -342 170 -33 8 -33 11 -12 76
12 35 15 73 12 132 -3 69 -9 92 -38 145 -39 73 -92 124 -170 161 -48 22 -68
26 -152 26 l-96 0 6 30 c4 17 7 118 7 225 0 153 -4 213 -19 280 -40 183 -117
372 -205 505 l-40 60 -1 386 c0 374 -1 386 -20 404 -28 25 -76 23 -103 -4 -21
-21 -22 -28 -25 -312 l-3 -290 -62 54 c-201 177 -433 294 -690 349 -136 29
-417 32 -549 5 -150 -30 -258 -66 -383 -127 -410 -199 -694 -563 -797 -1021
-39 -176 -29 -550 18 -674 9 -23 -528 -22 -605 1 -61 18 -123 69 -154 128
l-22 41 0 1445 0 1445 22 41 c12 22 40 57 62 77 79 71 -12 67 1540 67 883 0
1409 -4 1431 -10 62 -17 126 -65 157 -117 l28 -48 5 -418 5 -419 24 -19 c30
-25 76 -24 101 1 20 20 21 29 18 453 l-3 432 -28 57 c-36 74 -103 147 -164
181 -111 60 -36 57 -1578 56 -1071 0 -1422 -4 -1460 -13z m3684 -3422 c73 -37
104 -86 109 -173 2 -50 -1 -75 -15 -102 -11 -19 -129 -190 -263 -378 -177
-249 -254 -350 -283 -369 -54 -36 -147 -42 -203 -14 -103 53 -151 169 -110
267 17 40 493 710 527 742 63 58 155 68 238 27z m226 -517 c209 -78 448 -235
585 -384 147 -159 190 -294 136 -425 -42 -102 -115 -168 -216 -194 -173 -44
-434 68 -708 306 -86 75 -222 226 -222 247 0 7 75 118 166 247 186 261 160
240 259 203z"/>
<path d="M662 4497 c-211 -212 -292 -299 -292 -316 0 -34 16 -57 49 -70 24
-10 34 -10 57 2 16 9 154 141 307 294 297 299 299 302 256 357 -14 18 -30 26
-52 26 -29 0 -63 -31 -325 -293z"/>
<path d="M1003 4358 c-238 -238 -436 -441 -439 -451 -13 -42 34 -97 84 -97 9
0 213 197 454 437 399 398 438 441 438 470 0 43 -30 73 -72 73 -29 0 -74 -41
-465 -432z"/>
<path d="M2877 4022 c-269 -269 -287 -289 -287 -323 0 -45 25 -69 71 -69 31 0
57 23 322 288 258 258 287 290 287 320 0 42 -30 72 -73 72 -29 0 -61 -29 -320
-288z"/>
<path d="M2140 3141 c-328 -72 -590 -277 -738 -577 -254 -513 -40 -1147 473
-1408 424 -215 945 -121 1263 229 202 221 305 532 273 820 -34 305 -180 564
-421 747 -85 65 -263 151 -370 178 -122 32 -361 37 -480 11z m398 -147 c225
-46 442 -190 572 -379 117 -169 176 -415 150 -620 -39 -310 -227 -576 -503
-710 -146 -71 -225 -88 -402 -88 -178 0 -258 17 -400 88 -404 200 -603 663
-468 1089 103 327 382 570 723 629 64 11 256 6 328 -9z"/>
<path d="M2313 2839 c-76 -14 -130 -55 -169 -129 -17 -31 -19 -65 -22 -322 -2
-179 1 -301 7 -326 56 -208 346 -233 437 -38 23 50 24 58 24 335 0 313 -4 338
-58 401 -55 66 -134 94 -219 79z m107 -177 c19 -23 20 -41 20 -299 l0 -274
-25 -24 c-15 -15 -36 -25 -54 -25 -87 0 -91 16 -91 330 0 168 4 269 11 281 13
26 63 47 95 41 13 -2 33 -16 44 -30z"/>
<path d="M2286 1816 c-152 -57 -210 -223 -123 -353 109 -162 356 -124 418 64
14 43 7 129 -15 171 -51 99 -182 154 -280 118z m125 -165 c37 -37 38 -78 4
-115 -45 -49 -125 -26 -141 41 -12 47 36 102 89 103 10 0 32 -13 48 -29z"/>
</g>
</svg>
