<?xml version="1.0" standalone="no"?>
<!DOCTYPE svg PUBLIC "-//W3C//DTD SVG 20010904//EN"
 "http://www.w3.org/TR/2001/REC-SVG-20010904/DTD/svg10.dtd">
<svg version="1.0" xmlns="http://www.w3.org/2000/svg"
 width="512.000000pt" height="512.000000pt" viewBox="0 0 512.000000 512.000000"
 preserveAspectRatio="xMidYMid meet">

<g transform="translate(0.000000,512.000000) scale(0.100000,-0.100000)"
fill="#000000" stroke="none">
<path d="M1205 5031 c-126 -33 -221 -138 -240 -264 l-7 -46 -388 -3 c-375 -3
-390 -4 -416 -24 -64 -47 -69 -63 -69 -214 0 -124 2 -141 21 -166 31 -42 67
-65 110 -71 l40 -5 58 -293 c61 -308 78 -356 140 -414 l26 -24 0 -1162 0
-1161 191 -460 c105 -252 202 -473 215 -490 43 -59 133 -85 211 -64 81 23 108
62 197 278 l79 192 691 0 691 -1 25 -34 c14 -18 49 -49 77 -68 147 -97 339
-64 450 77 l21 26 805 2 c796 3 806 3 833 24 15 11 37 33 48 48 21 27 21 32
24 1336 l2 1308 -137 4 c-118 3 -144 7 -180 25 -113 60 -164 215 -107 326 9
17 55 72 103 120 l85 88 -281 281 -282 282 -94 -91 c-82 -80 -103 -94 -153
-109 -73 -21 -148 -9 -209 34 -83 58 -105 116 -105 285 l0 117 -399 0 -399 0
-4 -137 c-3 -118 -7 -144 -25 -180 -60 -113 -215 -164 -326 -107 -17 9 -72 55
-120 103 l-88 85 -274 -274 c-151 -151 -275 -268 -275 -261 0 8 12 77 27 152
l27 137 40 5 c43 6 79 29 110 71 19 25 21 42 21 166 0 124 -2 141 -21 166 -47
64 -62 69 -224 72 l-148 3 -7 47 c-8 59 -59 155 -98 188 -77 65 -205 98 -292
75z m163 -178 c37 -27 61 -63 68 -100 l7 -33 -162 0 c-175 0 -172 -1 -150 57
14 37 47 72 84 89 40 19 119 12 153 -13z m72 -373 l0 -80 -600 0 -600 0 0 80
0 80 600 0 600 0 0 -80z m400 0 l0 -80 -120 0 -120 0 0 80 0 80 120 0 120 0 0
-80z m1682 7 c11 -169 122 -306 289 -358 138 -43 276 -10 394 94 l40 36 166
-166 167 -166 -44 -54 c-97 -119 -124 -232 -89 -368 45 -171 189 -292 361
-303 l74 -5 0 -158 0 -159 -80 0 -80 0 0 80 0 80 -160 0 c-183 0 -160 -15
-179 116 -24 162 -115 363 -229 505 -283 354 -750 500 -1191 373 -345 -100
-632 -381 -746 -729 -21 -66 -29 -103 -51 -232 l-5 -33 -279 0 -280 0 0 79 0
79 113 4 c96 3 120 7 171 31 116 54 189 137 227 258 43 138 10 276 -94 394
l-36 40 166 166 166 167 60 -49 c143 -115 322 -128 476 -36 108 65 181 185
189 313 l5 74 237 0 237 0 5 -73z m-2082 -372 l0 -124 -27 -15 c-43 -22 -94
-77 -114 -121 -14 -31 -19 -65 -19 -147 l0 -108 -313 0 c-305 0 -314 1 -357
23 -24 12 -52 34 -63 48 -12 17 -37 116 -73 294 -30 147 -54 269 -54 271 0 2
230 4 510 4 l510 0 0 -125z m220 118 c-2 -25 -49 -235 -54 -240 -3 -4 -6 51
-6 120 l0 127 30 0 c17 0 30 -3 30 -7z m1849 -343 c144 -35 302 -119 413 -218
156 -141 285 -383 305 -574 l6 -59 -79 3 -79 3 -7 53 c-35 238 -211 471 -442
582 -127 61 -190 74 -346 74 -156 0 -219 -13 -346 -74 -163 -79 -295 -211
-374 -374 -34 -71 -51 -125 -75 -238 -5 -28 -7 -28 -80 -28 l-75 0 0 33 c0 96
77 303 156 423 139 210 370 359 631 409 103 19 280 13 392 -15z m-1553 -216
c14 -50 15 -68 6 -114 -19 -90 -76 -157 -158 -185 l-39 -13 -6 261 c-3 144 -3
268 0 276 3 9 34 -17 92 -76 76 -78 90 -99 105 -149z m-385 137 l29 -29 0
-211 0 -211 -80 0 -80 0 0 211 0 211 29 29 c16 16 39 29 51 29 12 0 35 -13 51
-29z m1899 -240 c183 -58 347 -216 410 -393 11 -31 22 -74 26 -97 l7 -41 -274
0 c-298 0 -364 -8 -467 -55 -32 -14 -73 -37 -93 -51 l-36 -24 -58 35 c-82 49
-156 75 -252 88 -97 13 -97 13 -59 126 72 214 251 377 467 426 87 20 244 13
329 -14z m-2510 -1211 l0 -1080 -160 0 -160 0 0 1080 0 1080 160 0 160 0 0
-1080z m320 1016 c0 -49 5 -70 23 -97 28 -41 82 -79 113 -79 l24 0 0 -960 0
-960 -160 0 -160 0 0 1080 0 1080 80 0 80 0 0 -64z m1531 -524 c31 -12 77 -36
103 -53 l46 -31 0 -864 0 -864 -41 20 c-22 12 -75 30 -116 41 -71 18 -115 19
-651 19 l-574 0 7 23 c4 12 10 48 12 80 l5 57 599 0 599 0 0 400 0 400 -600 0
-600 0 0 80 0 80 440 0 440 0 0 80 0 80 -440 0 -440 0 0 80 0 80 600 0 600 0
0 80 0 80 -600 0 -600 0 0 80 0 81 578 -3 c573 -3 577 -3 633 -26z m1749 -852
l0 -880 -603 0 c-565 0 -609 -1 -680 -19 -41 -11 -94 -29 -116 -41 l-41 -20 0
863 0 864 38 25 c133 88 118 87 805 87 l597 1 0 -880z m320 -240 l0 -960 -824
0 -824 0 -30 -54 c-41 -71 -88 -101 -162 -101 -74 0 -121 30 -162 101 l-30 54
-704 0 -703 0 33 78 33 77 589 3 c505 2 599 0 660 -13 83 -18 169 -66 237
-133 l47 -46 48 46 c26 26 73 63 105 82 110 65 120 66 861 66 l666 0 0 880 0
880 80 0 80 0 0 -960z m-2240 -80 l0 -240 -520 0 -520 0 0 240 0 240 520 0
520 0 0 -240z m-1296 -692 c-31 -73 -60 -145 -66 -160 l-10 -28 -228 0 -228 0
-10 28 c-6 15 -35 87 -66 160 l-55 132 359 0 359 0 -55 -132z m-200 -480 c-31
-73 -59 -143 -64 -154 -16 -40 -64 -40 -80 0 -5 11 -33 81 -64 154 l-55 132
159 0 159 0 -55 -132z"/>
<path d="M3225 4375 c-16 -15 -25 -36 -25 -55 0 -19 9 -40 25 -55 15 -16 36
-25 55 -25 19 0 40 9 55 25 16 15 25 36 25 55 0 19 -9 40 -25 55 -15 16 -36
25 -55 25 -19 0 -40 -9 -55 -25z"/>
<path d="M2262 3977 c-30 -32 -29 -81 3 -112 51 -52 135 -11 135 66 0 11 -11
31 -25 44 -32 33 -83 34 -113 2z"/>
<path d="M4185 3975 c-27 -26 -31 -51 -14 -88 12 -26 47 -47 80 -47 32 0 69
44 69 83 0 70 -85 103 -135 52z"/>
<path d="M2640 2320 l0 -80 80 0 80 0 0 80 0 80 -80 0 -80 0 0 -80z"/>
<path d="M3280 2640 l0 -80 160 0 160 0 0 80 0 80 -160 0 -160 0 0 -80z"/>
<path d="M3760 2640 l0 -80 320 0 320 0 0 80 0 80 -320 0 -320 0 0 -80z"/>
<path d="M3280 2320 l0 -80 560 0 560 0 0 80 0 80 -560 0 -560 0 0 -80z"/>
<path d="M3280 2000 l0 -80 560 0 560 0 0 80 0 80 -560 0 -560 0 0 -80z"/>
<path d="M3280 1680 l0 -80 400 0 400 0 0 80 0 80 -400 0 -400 0 0 -80z"/>
<path d="M3600 1360 l0 -80 80 0 80 0 0 80 0 80 -80 0 -80 0 0 -80z"/>
<path d="M3920 1360 l0 -80 80 0 80 0 0 80 0 80 -80 0 -80 0 0 -80z"/>
<path d="M4240 1360 l0 -80 80 0 80 0 0 80 0 80 -80 0 -80 0 0 -80z"/>
</g>
</svg>
