<?xml version="1.0" standalone="no"?>
<!DOCTYPE svg PUBLIC "-//W3C//DTD SVG 20010904//EN"
 "http://www.w3.org/TR/2001/REC-SVG-20010904/DTD/svg10.dtd">
<svg version="1.0" xmlns="http://www.w3.org/2000/svg"
 width="920.000000pt" height="920.000000pt" viewBox="0 0 920.000000 920.000000"
 preserveAspectRatio="xMidYMid meet">

<g transform="translate(0.000000,920.000000) scale(0.100000,-0.100000)"
fill="#000000" stroke="none">
<path d="M6270 8480 l0 -260 115 0 115 0 0 260 0 260 -115 0 -115 0 0 -260z"/>
<path d="M5062 8237 l-82 -82 185 -185 185 -185 82 83 83 82 -185 185 -185
185 -83 -83z"/>
<path d="M7440 8135 l-185 -185 83 -82 82 -83 185 185 185 185 -83 83 -82 82
-185 -185z"/>
<path d="M2616 7830 c-35 -11 -64 -36 -83 -75 -18 -34 -27 -138 -10 -128 6 4
7 1 1 -8 -5 -8 -9 -39 -9 -69 0 -47 -3 -55 -20 -58 -60 -10 -224 -71 -320
-120 -323 -165 -563 -445 -680 -794 -50 -149 -68 -268 -68 -438 -1 -385 141
-720 417 -988 194 -188 417 -308 681 -367 108 -24 379 -30 495 -11 146 24 263
61 397 126 337 165 592 458 708 814 52 161 60 220 60 441 0 187 -2 207 -29
310 -65 252 -178 458 -348 636 -176 185 -410 321 -665 389 l-43 11 0 112 c0
129 -14 168 -71 202 -30 18 -54 20 -209 22 -96 1 -188 -2 -204 -7z m80 -17
c-1 -7 -8 -19 -16 -26 -12 -10 -12 -9 -2 4 8 10 8 19 1 26 -6 6 -5 10 5 10 7
0 13 -6 12 -14z m33 1 c-6 -8 -6 -14 0 -18 10 -6 9 -31 -1 -42 -4 -3 -5 2 -4
13 2 10 1 23 -3 28 -11 19 -9 32 5 32 10 0 11 -4 3 -13z m48 -1 c0 -9 -4 -10
-14 -2 -7 6 -13 12 -13 14 0 1 6 2 13 2 8 0 14 -6 14 -14z m33 3 c-6 -6 -4
-16 8 -30 17 -21 17 -21 -4 -3 -23 19 -27 44 -7 44 9 0 10 -4 3 -11z m47 -3
c0 -9 -4 -10 -14 -2 -7 6 -13 12 -13 14 0 1 6 2 13 2 8 0 14 -6 14 -14z m34 4
c-7 -7 -7 -15 1 -25 13 -15 21 -49 10 -37 -4 4 -7 10 -7 13 0 4 -5 14 -10 22
-15 23 -14 37 1 37 10 0 11 -4 5 -10z m46 -4 c0 -9 -4 -10 -14 -2 -7 6 -13 12
-13 14 0 1 6 2 13 2 8 0 14 -6 14 -14z m27 -80 c-1 -48 -3 -89 -4 -90 -9 -10
-4 -51 8 -65 8 -10 12 -18 7 -18 -4 0 -2 -7 5 -15 10 -12 16 -13 29 -3 14 12
14 11 2 -5 -13 -16 -15 -16 -32 -1 -10 9 -16 20 -14 24 3 4 -1 13 -9 19 -13
11 -16 46 -5 66 3 6 5 49 4 97 0 47 2 85 5 83 3 -2 5 -43 4 -92z m-362 75 c-9
-9 -9 -15 1 -27 11 -14 10 -14 -6 -2 -13 10 -15 17 -6 27 6 8 14 14 17 14 3 0
1 -5 -6 -12z m157 -12 c9 -11 9 -16 -1 -22 -7 -4 -10 -4 -6 1 4 4 3 14 -3 22
-6 7 -9 13 -6 13 2 0 10 -6 16 -14z m82 -3 c13 -16 12 -17 -3 -4 -10 7 -18 15
-18 17 0 8 8 3 21 -13z m194 -11 c-1 -9 5 -26 13 -37 16 -19 16 -19 -3 -3 -18
17 -31 73 -14 63 4 -3 6 -13 4 -23z m-399 1 c-1 -7 -8 -19 -16 -26 -12 -10
-12 -9 -2 4 8 10 8 19 1 26 -6 6 -5 10 5 10 7 0 13 -6 12 -14z m-54 -47 c-11
-12 -18 -33 -17 -49 1 -15 -1 -25 -4 -22 -13 13 -7 56 11 71 17 17 17 18 1 38
l-18 21 23 -19 c22 -19 22 -20 4 -40z m123 37 c-1 -10 3 -25 9 -33 9 -13 9
-13 -6 -2 -13 10 -16 26 -9 50 4 11 9 -2 6 -15z m104 -30 c-6 -7 -14 -13 -17
-13 -3 0 -1 5 6 12 9 9 8 16 -6 32 -17 21 -17 21 5 2 18 -15 20 -22 12 -33z
m59 34 c-1 -2 3 -11 10 -19 10 -13 9 -18 -5 -29 -16 -12 -17 -12 -6 2 7 9 10
19 6 23 -4 3 -8 14 -9 22 -1 9 0 14 3 11 2 -3 3 -7 1 -10z m68 -12 c-1 -13 -4
-27 -7 -30 -5 -4 -4 41 0 53 4 10 8 -2 7 -23z m-372 -4 c3 -4 -4 -17 -17 -27
-22 -19 -22 -19 -4 2 9 11 14 24 10 27 -3 4 -4 7 0 7 3 0 8 -4 11 -9z m113 2
c-4 -3 0 -14 9 -24 10 -11 12 -19 4 -24 -5 -3 -8 -10 -5 -15 3 -5 1 -11 -4
-14 -10 -7 -9 13 2 30 4 7 0 17 -8 24 -14 11 -12 30 2 30 4 0 3 -3 0 -7z m106
-16 c-4 -7 -8 -15 -8 -19 0 -3 -3 -9 -7 -13 -5 -6 -4 19 2 35 1 3 2 9 1 13 -1
5 3 6 9 2 6 -3 7 -12 3 -18z m288 6 c13 -16 12 -17 -3 -4 -10 7 -18 15 -18 17
0 8 8 3 21 -13z m-430 -7 c-8 -10 -8 -16 2 -25 14 -11 17 -54 5 -66 -3 -3 -4
8 -3 24 1 17 -4 36 -11 42 -11 9 -11 15 -3 25 6 8 14 14 16 14 3 0 0 -6 -6
-14z m112 2 c-11 -19 -11 -51 1 -68 9 -13 8 -13 -5 -3 -21 17 -16 83 7 83 3 0
2 -6 -3 -12z m242 3 c3 -5 2 -12 -3 -15 -5 -3 -9 1 -9 9 0 17 3 19 12 6z m40
-51 c-8 -9 -12 -19 -9 -22 3 -3 1 -9 -4 -12 -14 -8 -9 21 6 36 9 9 8 17 -6 32
-17 21 -17 21 6 2 20 -17 21 -21 7 -36z m-432 28 c-5 -7 -9 -30 -8 -50 1 -20
-2 -35 -5 -33 -16 10 -1 95 17 95 3 0 1 -6 -4 -12z m223 -13 c-1 -14 -8 -30
-15 -37 -11 -11 -12 -10 -5 2 5 8 9 23 10 33 3 37 12 39 10 2z m72 8 c-8 -10
-14 -31 -13 -46 1 -15 -1 -30 -5 -32 -12 -8 -4 63 9 79 7 9 16 16 19 16 3 0
-2 -8 -10 -17z m117 -2 c3 -5 2 -12 -3 -15 -5 -3 -9 1 -9 9 0 17 3 19 12 6z
m-390 -47 c1 -20 -5 -40 -14 -47 -13 -10 -14 -10 -5 3 6 8 10 32 9 52 -1 21 1
35 4 32 3 -3 6 -21 6 -40z m91 31 c-1 -8 -5 -18 -9 -21 -4 -4 -1 -14 6 -23 11
-14 10 -14 -5 -2 -10 7 -15 18 -11 25 4 6 8 14 9 19 3 14 4 17 8 17 2 0 3 -7
2 -15z m81 0 c0 -8 -4 -12 -9 -9 -5 3 -6 10 -3 15 9 13 12 11 12 -6z m59 -11
c1 -9 0 -13 -4 -10 -3 4 -7 14 -8 22 -1 9 0 13 4 10 3 -4 7 -14 8 -22z m59 -6
c0 -18 -5 -40 -10 -48 -13 -20 -13 -32 -1 -49 13 -17 17 -43 5 -35 -5 3 -7 9
-4 14 3 4 -1 13 -9 19 -15 13 -16 28 -1 51 5 8 10 27 11 43 2 31 3 37 7 37 2
0 3 -15 2 -32z m-378 7 c0 -8 -4 -12 -9 -9 -5 3 -6 10 -3 15 9 13 12 11 12 -6z
m549 0 c-1 -8 -5 -17 -8 -21 -5 -4 -4 16 1 34 3 9 9 -1 7 -13z m-307 -9 c9
-10 7 -17 -6 -27 -16 -12 -17 -12 -6 2 10 12 10 18 1 27 -7 7 -9 12 -6 12 3 0
11 -6 17 -14z m217 -22 c0 -13 -2 -22 -5 -19 -3 3 -6 17 -7 31 0 13 2 22 5 19
3 -3 6 -17 7 -31z m60 21 c-1 -8 -5 -18 -9 -21 -4 -4 0 -15 9 -25 11 -12 12
-19 4 -24 -8 -5 -5 -14 10 -30 15 -15 18 -25 10 -30 -8 -5 -7 -11 2 -23 12
-15 11 -16 -5 -3 -12 10 -14 17 -7 26 7 8 4 17 -10 30 -14 13 -17 22 -10 30 7
9 6 16 -5 25 -8 7 -12 17 -8 24 4 6 8 14 9 19 3 14 4 17 8 17 2 0 3 -7 2 -15z
m-317 -19 c9 -10 7 -17 -6 -27 -16 -12 -17 -12 -6 2 10 12 10 18 1 27 -7 7 -9
12 -6 12 3 0 11 -6 17 -14z m92 1 c-6 -8 -7 -18 -3 -22 4 -5 1 -5 -6 -1 -10 6
-10 11 -1 22 6 8 14 14 16 14 3 0 0 -6 -6 -13z m-285 -18 c1 -5 2 -10 4 -11 5
-8 7 -39 2 -33 -4 4 -8 11 -8 16 -1 5 -2 10 -4 12 -5 7 -7 38 -2 32 4 -4 8
-11 8 -16z m153 -26 c-6 -7 -14 -13 -17 -13 -3 0 -1 5 6 12 9 9 8 16 -6 32
-17 21 -17 21 5 2 18 -15 20 -22 12 -33z m156 30 c-2 -10 -4 -19 -5 -20 -7 -9
-5 -30 4 -43 9 -13 9 -13 -6 -2 -13 10 -17 37 -8 50 2 1 4 7 5 12 1 6 3 12 4
15 3 14 9 3 6 -12z m-63 -5 c-9 -9 -9 -15 1 -27 11 -14 10 -14 -6 -2 -13 10
-15 17 -6 27 6 8 14 14 17 14 3 0 1 -5 -6 -12z m295 -5 c0 -9 -4 -10 -14 -2
-7 6 -13 12 -13 14 0 1 6 2 13 2 8 0 14 -6 14 -14z m-501 -28 c-1 -8 -5 -18
-9 -21 -4 -4 -1 -14 6 -23 11 -14 10 -14 -5 -2 -10 7 -15 18 -11 25 11 16 11
29 -1 46 -9 13 -9 13 6 2 9 -7 15 -19 14 -27z m83 9 c-6 -8 -8 -14 -3 -14 4 0
3 -5 -4 -12 -9 -9 -9 -15 1 -27 11 -14 10 -14 -6 -2 -13 10 -15 17 -6 27 6 8
8 14 4 14 -4 0 -2 6 4 13 6 8 7 18 3 22 -4 5 -1 5 6 1 10 -6 10 -11 1 -22z
m362 9 c13 -16 12 -17 -3 -4 -10 7 -18 15 -18 17 0 8 8 3 21 -13z m-390 -6
c-6 -8 -7 -18 -3 -22 4 -5 1 -5 -6 -1 -10 6 -10 11 -1 22 6 8 14 14 16 14 3 0
0 -6 -6 -13z m112 1 c-6 -7 -9 -21 -8 -31 2 -9 0 -15 -5 -12 -13 8 1 55 17 55
3 0 1 -6 -4 -12z m173 -12 c0 -14 -3 -23 -7 -20 -6 3 -6 22 0 42 3 10 7 -2 7
-22z m59 15 c3 -5 2 -12 -3 -15 -5 -3 -9 1 -9 9 0 17 3 19 12 6z m36 -18 c13
-16 12 -17 -3 -4 -10 7 -18 15 -18 17 0 8 8 3 21 -13z m-305 -8 c-1 -8 -7 -20
-14 -27 -8 -8 -9 -15 0 -25 9 -11 14 -10 32 4 l21 18 -19 -23 c-18 -21 -20
-21 -38 -5 -17 15 -17 17 -2 35 10 10 14 18 10 18 -4 0 -4 5 -1 10 9 14 14 12
11 -5z m60 -20 c0 -14 -8 -32 -20 -42 -21 -18 -21 -18 -5 2 9 11 15 32 14 48
-1 15 1 25 4 22 3 -3 6 -17 7 -30z m311 20 c0 -8 -4 -12 -9 -9 -5 3 -6 10 -3
15 9 13 12 11 12 -6z m-466 -12 c13 -16 12 -17 -3 -4 -10 7 -18 15 -18 17 0 8
8 3 21 -13z m390 0 c13 -16 12 -17 -3 -4 -10 7 -18 15 -18 17 0 8 8 3 21 -13z
m-205 -18 c1 -7 -8 -22 -19 -32 -22 -18 -22 -18 -6 2 9 11 15 28 14 38 -2 11
-1 16 3 13 3 -4 7 -13 8 -21z m188 6 c14 -15 15 -21 4 -27 -7 -4 -10 -3 -5 1
4 5 0 17 -10 27 -9 10 -14 18 -11 18 3 0 13 -9 22 -19z m-384 -26 c-6 -7 -6
-15 1 -22 6 -6 5 -10 -5 -10 -14 0 -16 20 -3 33 4 4 1 14 -6 23 -11 14 -10 14
6 2 12 -9 14 -17 7 -26z m218 22 c-1 -2 3 -11 10 -20 9 -10 10 -17 2 -22 -6
-4 -10 -3 -9 2 1 4 0 10 -1 13 -5 14 -8 41 -3 37 2 -3 3 -7 1 -10z m58 -5 c-3
-3 1 -13 9 -22 13 -14 13 -17 1 -17 -8 0 -15 3 -14 6 0 3 -1 8 -2 11 -7 20 -7
39 2 34 5 -3 7 -9 4 -12z m165 1 c13 -16 12 -17 -3 -4 -10 7 -18 15 -18 17 0
8 8 3 21 -13z m-109 -10 c-1 -4 7 -17 16 -28 17 -20 17 -20 -4 -2 -11 9 -21
24 -21 32 0 8 2 13 5 11 2 -2 4 -8 4 -13z m-366 -29 c1 -9 -1 -13 -4 -9 -4 4
-7 10 -7 13 0 4 -4 14 -9 22 -7 12 -6 13 4 3 8 -7 15 -20 16 -29z m96 12 c3 3
8 1 12 -4 11 -18 -25 -8 -41 12 -18 21 -18 21 3 3 11 -9 23 -14 26 -11z m367
10 c9 -10 7 -17 -6 -27 -16 -12 -17 -12 -6 2 10 12 10 18 1 27 -7 7 -9 12 -6
12 3 0 11 -6 17 -14z m-492 -13 c-4 -3 -2 -11 3 -18 7 -8 5 -12 -4 -12 -8 0
-12 7 -11 16 5 22 4 21 12 21 3 0 3 -3 0 -7z m94 -10 c13 -16 12 -17 -3 -4
-10 7 -18 15 -18 17 0 8 8 3 21 -13z m423 -11 c3 -5 -1 -9 -9 -9 -8 0 -12 4
-9 9 3 4 7 8 9 8 2 0 6 -4 9 -8z m-374 -402 l0 -100 114 0 c82 0 115 3 118 13
3 6 4 49 3 95 -1 46 2 85 6 88 4 2 40 -2 81 -10 342 -66 634 -297 784 -621 37
-80 84 -246 84 -296 l0 -29 -95 0 -95 0 0 -115 0 -115 95 0 95 0 0 -27 c0 -39
-35 -178 -60 -244 -103 -264 -293 -469 -547 -591 -97 -47 -266 -98 -323 -98
l-27 0 2 95 1 95 -118 0 -118 0 0 -96 0 -97 -50 7 c-318 42 -645 279 -795 576
-61 120 -127 352 -106 373 4 4 49 8 99 8 l92 0 0 115 0 114 -100 0 -101 0 6
38 c66 396 328 720 694 859 57 22 210 60 249 62 9 1 12 -25 12 -99z m57 93
c-4 -3 -1 -13 6 -22 11 -14 10 -14 -5 -2 -16 12 -16 31 -1 31 4 0 3 -3 0 -7z
m32 0 c-1 -5 0 -10 1 -13 5 -11 5 -158 0 -155 -3 2 -6 36 -5 75 1 39 -3 74 -7
76 -5 3 -6 10 -3 15 7 11 15 12 14 2z m30 0 c-1 -5 0 -10 1 -13 5 -11 5 -158
0 -155 -3 2 -6 36 -5 75 1 39 -3 74 -7 76 -5 3 -6 10 -3 15 7 11 15 12 14 2z
m30 0 c-1 -5 0 -10 1 -13 5 -11 5 -158 0 -155 -3 2 -6 36 -5 75 1 39 -3 74 -7
76 -5 3 -6 10 -3 15 7 11 15 12 14 2z m66 -89 c0 -46 -2 -80 -5 -77 -3 2 -5
37 -5 76 0 40 -4 72 -10 74 -7 2 -11 -25 -10 -76 1 -44 -2 -78 -5 -76 -3 2 -5
34 -5 72 1 37 -2 73 -6 79 -6 7 1 10 19 10 l27 0 0 -82z m-170 57 c3 -5 2 -12
-3 -15 -5 -3 -9 1 -9 9 0 17 3 19 12 6z m22 -26 c0 -8 -4 -12 -9 -9 -5 3 -6
10 -3 15 9 13 12 11 12 -6z m-22 -14 c3 -5 2 -12 -3 -15 -5 -3 -9 1 -9 9 0 17
3 19 12 6z m22 -26 c0 -8 -4 -12 -9 -9 -5 3 -6 10 -3 15 9 13 12 11 12 -6z
m-22 -14 c3 -5 2 -12 -3 -15 -5 -3 -9 1 -9 9 0 17 3 19 12 6z m22 -26 c0 -8
-4 -12 -9 -9 -5 3 -6 10 -3 15 9 13 12 11 12 -6z m-23 -14 c3 -5 -2 -15 -12
-22 -15 -12 -16 -12 -5 2 7 9 10 19 6 22 -3 4 -4 7 0 7 3 0 8 -4 11 -9z m-947
-828 c0 -9 -4 -10 -14 -2 -7 6 -13 12 -13 14 0 1 6 2 13 2 8 0 14 -6 14 -14z
m33 2 c-7 -9 -6 -16 3 -23 12 -11 18 -154 7 -166 -3 -3 -5 30 -5 72 1 42 -3
83 -9 91 -15 20 -15 38 0 38 10 0 11 -4 4 -12z m47 -2 c0 -9 -4 -10 -14 -2 -7
6 -13 12 -13 14 0 1 6 2 13 2 8 0 14 -6 14 -14z m34 3 c-4 -6 -7 -23 -6 -39 1
-15 -5 -33 -14 -40 -14 -10 -14 -10 -5 3 6 8 10 31 9 51 -1 23 3 36 12 36 7 0
9 -5 4 -11z m1816 -1 c0 -8 -4 -12 -9 -9 -5 3 -6 10 -3 15 9 13 12 11 12 -6z
m34 2 c-7 -7 -7 -15 1 -25 13 -15 19 -84 8 -77 -4 2 -6 17 -5 32 1 15 -3 34
-9 42 -15 20 -15 38 0 38 10 0 11 -4 5 -10z m46 -4 c0 -9 -4 -10 -14 -2 -7 6
-13 12 -13 14 0 1 6 2 13 2 8 0 14 -6 14 -14z m35 3 c-13 -20 -8 -51 11 -72
15 -17 16 -23 5 -30 -7 -4 -10 -3 -5 1 4 5 -1 17 -10 27 -21 23 -25 85 -7 85
7 0 10 -5 6 -11z m45 -3 c0 -9 -4 -10 -14 -2 -7 6 -13 12 -13 14 0 1 6 2 13 2
8 0 14 -6 14 -14z m-2106 -20 c13 -16 12 -17 -3 -4 -10 7 -18 15 -18 17 0 8 8
3 21 -13z m2084 8 c3 -5 2 -12 -3 -15 -5 -3 -9 1 -9 9 0 17 3 19 12 6z m-2105
-36 c-8 -10 -8 -15 0 -20 8 -5 8 -10 0 -20 -8 -10 -8 -15 0 -20 8 -5 8 -10 0
-20 -7 -8 -7 -15 -1 -19 10 -6 9 -31 -1 -42 -4 -3 -5 2 -4 13 2 10 -1 23 -6
30 -6 7 -5 14 2 18 8 5 8 10 0 20 -8 10 -8 15 0 20 8 5 8 10 0 20 -8 9 -8 15
0 20 6 3 7 11 4 17 -4 7 -2 8 5 4 9 -6 9 -11 1 -21z m55 -59 c0 -41 -3 -77 -5
-80 -3 -2 -5 33 -5 79 0 46 2 82 5 80 3 -2 5 -37 5 -79z m61 69 c-1 -8 -5 -17
-8 -21 -5 -4 -4 16 1 34 3 9 9 -1 7 -13z m1869 -22 c-1 -15 2 -33 7 -39 5 -7
1 -17 -9 -25 -16 -12 -17 -12 -6 2 7 9 10 19 6 23 -9 9 -12 76 -3 71 4 -2 6
-17 5 -32z m61 22 c-1 -8 -5 -17 -8 -21 -5 -4 -4 16 1 34 3 9 9 -1 7 -13z m81
0 c0 -8 -4 -12 -9 -9 -5 3 -6 10 -3 15 9 13 12 11 12 -6z m-2100 -20 c0 -8 -4
-12 -9 -9 -5 3 -6 10 -3 15 9 13 12 11 12 -6z m2106 -8 c4 3 7 4 7 0 0 -17
-20 -14 -36 6 -19 22 -19 22 2 4 11 -9 24 -14 27 -10z m-1972 -11 c-9 -10 -9
-16 -1 -21 8 -5 8 -10 0 -20 -8 -10 -8 -15 0 -20 8 -5 9 -10 1 -18 -7 -7 -7
-15 2 -26 11 -14 10 -14 -6 -2 -13 10 -14 17 -7 26 8 9 8 15 0 20 -8 5 -8 10
0 20 8 10 8 15 0 20 -8 5 -8 11 1 21 6 8 14 14 16 14 3 0 0 -6 -6 -14z m1915
-21 c-1 -8 -5 -17 -8 -21 -4 -3 -5 2 -4 13 2 10 -2 25 -8 33 -9 13 -9 13 6 2
9 -7 15 -19 14 -27z m-31 -3 c-1 -9 2 -22 6 -28 6 -7 3 -16 -6 -24 -12 -10
-13 -16 -3 -29 12 -14 11 -14 -5 -2 -16 12 -16 16 -2 31 8 9 12 20 8 24 -10 9
-12 56 -2 51 4 -3 6 -13 4 -23z m-2018 3 c0 -8 -4 -12 -9 -9 -5 3 -6 10 -3 15
9 13 12 11 12 -6z m108 -4 c3 -5 2 -12 -3 -15 -5 -3 -9 1 -9 9 0 17 3 19 12 6z
m1991 -3 c-1 -7 -4 -17 -7 -23 -4 -5 -5 -18 -4 -27 2 -9 -4 -23 -13 -30 -13
-11 -14 -11 -7 2 6 8 10 23 11 33 1 9 3 19 4 22 1 3 4 10 5 15 1 6 3 12 4 15
2 11 9 4 7 -7z m-119 -26 c-13 -15 -14 -21 -4 -32 10 -12 9 -12 -6 -1 -16 13
-16 15 -1 32 10 11 19 19 22 19 3 0 -2 -8 -11 -18z m84 5 c-6 -8 -7 -18 -3
-22 4 -5 1 -5 -6 -1 -10 6 -10 11 -1 22 6 8 14 14 16 14 3 0 0 -6 -6 -13z
m-2064 -12 c0 -8 -4 -12 -9 -9 -5 3 -6 10 -3 15 9 13 12 11 12 -6z m108 -4 c3
-5 2 -12 -3 -15 -5 -3 -9 1 -9 9 0 17 3 19 12 6z m1856 -38 c13 -16 12 -17 -3
-4 -10 7 -18 15 -18 17 0 8 8 3 21 -13z m99 13 c0 -2 -8 -10 -17 -17 -16 -13
-17 -12 -4 4 13 16 21 21 21 13z m-1109 -833 c13 -16 12 -17 -3 -4 -10 7 -18
15 -18 17 0 8 8 3 21 -13z m34 -77 c0 -41 -3 -77 -5 -80 -3 -3 -5 30 -5 72 1
42 -3 84 -9 92 -9 12 -8 13 4 3 12 -9 16 -31 15 -87z m30 0 c0 -41 -3 -77 -5
-80 -3 -3 -5 30 -5 72 1 42 -3 84 -9 92 -9 12 -8 13 4 3 12 -9 16 -31 15 -87z
m30 0 c0 -41 -3 -77 -5 -80 -3 -3 -5 30 -5 72 1 42 -3 84 -9 92 -9 12 -8 13 4
3 12 -9 16 -31 15 -87z m24 80 c9 -11 9 -16 -1 -22 -7 -4 -10 -4 -6 1 4 4 3
14 -3 22 -6 7 -9 13 -6 13 2 0 10 -6 16 -14z m56 -71 c0 -41 -2 -72 -5 -69 -2
3 -5 39 -5 79 0 41 2 72 5 69 2 -3 5 -39 5 -79z m-28 40 c0 -8 -4 -12 -9 -9
-5 3 -6 10 -3 15 9 13 12 11 12 -6z m-142 -59 c0 -36 -3 -67 -6 -70 -4 -4 -4
123 0 132 5 10 7 -7 6 -62z m120 45 c3 -5 2 -12 -3 -15 -5 -3 -9 1 -9 9 0 17
3 19 12 6z m22 -26 c0 -8 -4 -12 -9 -9 -5 3 -6 10 -3 15 9 13 12 11 12 -6z
m-22 -14 c3 -5 2 -12 -3 -15 -5 -3 -9 1 -9 9 0 17 3 19 12 6z m22 -26 c0 -8
-4 -12 -9 -9 -5 3 -6 10 -3 15 9 13 12 11 12 -6z m-21 -23 c-3 -3 -1 -10 4
-17 7 -8 6 -12 -3 -12 -7 0 -13 11 -13 23 0 12 4 20 9 17 4 -3 6 -8 3 -11z
m35 -19 c13 -16 12 -17 -3 -4 -10 7 -18 15 -18 17 0 8 8 3 21 -13z"/>
<path d="M4560 6920 l0 -120 260 0 260 0 0 120 0 120 -260 0 -260 0 0 -120z"/>
<path d="M7690 6921 l0 -117 258 0 257 1 0 115 0 115 -257 1 -258 2 0 -117z"/>
<path d="M5830 5487 l0 -252 173 -173 172 -172 210 0 210 0 173 173 172 172 0
253 0 252 -555 0 -555 0 0 -253z"/>
<path d="M6080 4446 c-409 -86 -716 -400 -790 -807 -15 -80 -15 -245 -1 -331
61 -371 328 -677 686 -787 262 -81 564 -47 794 88 l54 32 69 -68 68 -68 137
138 138 137 -67 67 -67 68 54 110 c74 149 96 237 102 406 6 145 -7 240 -49
364 -101 298 -359 540 -673 631 -75 22 -115 27 -240 30 -102 2 -171 -1 -215
-10z m338 -275 c122 -24 253 -94 347 -186 140 -136 213 -301 220 -492 12 -354
-233 -662 -581 -729 -248 -47 -490 34 -666 224 -114 125 -177 279 -183 452 -8
205 58 379 198 523 176 182 415 257 665 208z"/>
</g>
</svg>
