<?xml version="1.0" standalone="no"?>
<!DOCTYPE svg PUBLIC "-//W3C//DTD SVG 20010904//EN"
 "http://www.w3.org/TR/2001/REC-SVG-20010904/DTD/svg10.dtd">
<svg version="1.0" xmlns="http://www.w3.org/2000/svg"
 width="650.000000pt" height="650.000000pt" viewBox="0 0 650.000000 650.000000"
 preserveAspectRatio="xMidYMid meet">

<g transform="translate(0.000000,650.000000) scale(0.100000,-0.100000)"
fill="#000000" stroke="none">
<path d="M6070 4248 c-630 -401 -953 -599 -994 -610 -87 -23 -112 -9 -386 211
l-248 199 -63 6 c-64 5 -1475 57 -1558 56 -42 0 -47 -4 -175 -128 l-131 -128
-80 -13 c-44 -7 -241 -42 -438 -77 -198 -35 -400 -69 -450 -74 -93 -9 -235 -1
-333 20 -28 6 -280 114 -560 239 -280 126 -510 228 -511 227 -5 -4 -54 -198
-51 -201 22 -19 1034 -459 1084 -472 55 -14 111 -17 274 -17 l205 0 300 56
c165 31 302 54 304 52 3 -3 -99 -109 -226 -237 -245 -247 -259 -265 -233 -327
21 -52 195 -196 295 -245 136 -66 195 -80 360 -79 129 0 147 2 233 31 138 46
209 94 411 278 123 113 187 165 198 161 8 -4 386 -252 840 -553 923 -612 875
-574 875 -693 0 -47 -6 -70 -26 -105 -44 -74 -143 -118 -219 -97 -20 6 -174
96 -342 201 -168 106 -310 189 -314 186 -12 -7 -101 -151 -101 -163 0 -8 439
-290 597 -383 64 -38 100 -76 119 -126 35 -91 -6 -202 -91 -250 -48 -27 -140
-31 -185 -8 -16 8 -158 96 -316 195 -157 99 -289 180 -294 180 -8 0 -110 -156
-110 -168 0 -4 115 -78 255 -166 303 -188 310 -195 303 -321 -3 -63 -8 -80
-34 -117 -43 -61 -94 -88 -170 -88 l-61 0 -313 196 c-172 107 -318 193 -324
191 -12 -6 -111 -166 -105 -171 2 -1 111 -69 241 -150 271 -169 280 -178 286
-287 4 -72 -14 -124 -60 -166 -51 -47 -142 -66 -205 -42 -15 5 -73 39 -129 75
-100 64 -101 64 -113 117 -35 158 -185 295 -358 328 l-63 12 0 52 c0 109 -62
243 -144 310 -52 42 -137 82 -193 91 -48 7 -48 7 -29 60 68 194 -23 408 -211
497 -89 41 -208 49 -295 20 l-57 -20 -22 64 c-52 158 -187 253 -358 253 -161
0 -292 -68 -408 -213 l-30 -38 -60 113 -60 113 -451 275 c-249 152 -465 283
-481 293 l-29 17 14 -73 c8 -39 22 -103 32 -141 l17 -70 370 -224 370 -225 67
-127 66 -126 -22 -30 c-13 -16 -26 -39 -30 -52 -20 -62 -33 -50 920 -833 498
-409 911 -747 918 -751 11 -6 147 -23 276 -33 l75 -6 74 94 75 94 70 -45 c91
-58 154 -82 236 -89 221 -19 422 150 438 368 l5 69 67 0 c86 0 154 21 226 69
109 73 171 182 183 321 l6 75 73 7 c88 7 177 48 237 106 22 22 371 290 775
596 710 537 736 558 753 604 22 56 79 273 74 279 -2 2 -334 -247 -738 -552
-605 -459 -734 -553 -740 -538 -23 65 -22 68 36 92 146 60 245 213 245 377 0
143 -58 256 -175 343 -33 24 -406 273 -829 553 l-768 509 21 23 21 22 -66 72
c-36 40 -69 72 -74 72 -4 0 -127 -109 -271 -241 -273 -250 -341 -303 -438
-340 -70 -27 -230 -37 -314 -19 -66 13 -195 76 -247 119 l-34 29 211 218 c116
121 301 308 411 417 l198 198 745 -27 744 -27 224 -179 c123 -99 240 -188 260
-199 101 -52 223 -60 333 -21 29 10 308 179 620 376 l566 357 -32 96 c-18 53
-37 98 -42 99 -5 1 -101 -57 -214 -128z m-4455 -2329 c82 -22 129 -91 128
-187 -1 -82 -30 -137 -146 -277 -79 -95 -90 -104 -106 -93 -45 32 -300 244
-301 250 0 7 125 163 174 216 50 54 133 97 196 101 8 0 33 -4 55 -10z m632
-315 c57 -45 86 -107 80 -170 -3 -28 -15 -71 -27 -95 -17 -33 -225 -299 -301
-383 -6 -6 -231 169 -311 243 -17 15 -9 28 130 196 181 220 219 248 324 243
57 -3 73 -8 105 -34z m311 -573 c47 -24 77 -56 97 -103 18 -44 19 -122 2 -161
-18 -42 -160 -217 -174 -214 -16 3 -313 247 -313 258 0 19 159 196 195 216 52
29 140 31 193 4z m402 -462 c108 -49 172 -167 137 -252 -15 -35 -115 -167
-127 -167 -3 0 -66 50 -140 111 -74 61 -146 120 -159 130 l-24 19 60 73 c33
39 75 80 94 89 45 24 104 22 159 -3z"/>
</g>
</svg>
